<svg width="177" height="39" viewBox="0 0 177 39" fill="none" xmlns="http://www.w3.org/2000/svg">
<path d="M2.11523 32V10.7891H10.4355C15.2695 10.7891 18.0234 13.748 18.0234 17.9375C18.0234 22.1855 15.2109 25.0859 10.3184 25.0859H6.50977V32H2.11523ZM6.50977 21.541H9.61523C12.2227 21.541 13.4824 20.0762 13.4824 17.9375C13.4824 15.8281 12.2227 14.3926 9.61523 14.3926H6.50977V21.541ZM20.8066 32V10.7891H25.2012V19.5781H34.4004V10.7891H38.8242V32H34.4004V23.2109H25.2012V32H20.8066ZM61.8223 21.3945C61.8223 28.3086 57.5156 32.293 51.9199 32.293C46.2656 32.293 41.9883 28.2793 41.9883 21.3945C41.9883 14.4805 46.2656 10.4961 51.9199 10.4961C57.5156 10.4961 61.8223 14.4805 61.8223 21.3945ZM57.3398 21.3945C57.3398 16.8535 55.2012 14.3926 51.9199 14.3926C48.6387 14.3926 46.4707 16.8535 46.4707 21.3945C46.4707 25.9355 48.6387 28.3965 51.9199 28.3965C55.2012 28.3965 57.3398 25.9355 57.3398 21.3945ZM63.2285 14.4219V10.7891H80.6016V14.4219H74.0977V32H69.7324V14.4219H63.2285ZM101.812 21.3945C101.812 28.3086 97.5059 32.293 91.9102 32.293C86.2559 32.293 81.9785 28.2793 81.9785 21.3945C81.9785 14.4805 86.2559 10.4961 91.9102 10.4961C97.5059 10.4961 101.812 14.4805 101.812 21.3945ZM97.3301 21.3945C97.3301 16.8535 95.1914 14.3926 91.9102 14.3926C88.6289 14.3926 86.4609 16.8535 86.4609 21.3945C86.4609 25.9355 88.6289 28.3965 91.9102 28.3965C95.1914 28.3965 97.3301 25.9355 97.3301 21.3945ZM111.891 32V10.7891H116.285V28.3672H125.426V32H111.891ZM132.369 32H127.623L134.977 10.7891H140.631L147.955 32H143.238L141.656 27.1074H133.98L132.369 32ZM135.094 23.6797H140.543L137.877 15.5645H137.73L135.094 23.6797ZM150.357 32V10.7891H158.795C163.482 10.7891 165.826 13.0449 165.826 16.2383C165.826 18.7285 164.215 20.2812 162.018 20.7793V20.9844C164.42 21.1016 166.676 23.0059 166.676 26.1406C166.676 29.5098 164.156 32 159.352 32H150.357ZM158.473 28.3672C161.021 28.3672 162.105 27.3125 162.105 25.7305C162.105 23.9434 160.758 22.6836 158.59 22.6836H154.752V28.3672H158.473ZM158.15 19.666C159.996 19.666 161.373 18.6406 161.373 16.9414C161.373 15.418 160.26 14.3633 158.238 14.3633H154.752V19.666H158.15Z" fill="black"/>
<line x1="166.562" y1="6.21212" x2="169.562" y2="0.759044" stroke="black"/>
<line x1="168.77" y1="8.66997" x2="174.77" y2="5.55619" stroke="black"/>
<line x1="169.978" y1="11.814" x2="176.978" y2="11.5007" stroke="black"/>
</svg>
